<svg width="241" height="140" viewBox="0 0 241 140" fill="none" xmlns="http://www.w3.org/2000/svg">
<path d="M65.3134 14.1735L65.741 14.1367C67.3744 13.996 68.5333 14.9474 69.209 16.9914C69.3157 18.2315 67.3162 20.8246 63.2117 24.7879L16.8331 75.4171L58.0292 71.8705C60.3321 71.9996 61.5593 72.945 61.7103 74.6983C61.5307 76.8159 60.4824 77.9487 58.5667 78.1136L8.82688 82.3958C6.52401 82.2667 5.29674 81.3212 5.1458 79.568C5.03904 78.3279 6.58161 76.2308 9.76423 73.2687C45.5941 34.1104 63.6968 14.5108 64.0475 14.4806L65.3134 14.1735ZM66.7763 31.1668L65.5104 31.4739C63.9009 32.7928 55.8021 41.0977 41.2062 56.3977C36.0424 61.3655 33.5071 64.3407 33.591 65.3157L33.658 66.094C33.7699 67.3939 34.8407 68.2236 36.8783 68.5737L38.375 68.4449C38.8026 68.408 47.7573 59.2369 65.2484 40.9392C68.9701 37.5344 70.778 35.2162 70.6712 33.9761C70.5196 32.2144 69.293 31.2775 66.9894 31.1398L66.7756 31.1582L66.7763 31.1668ZM68.2393 48.1601C66.2467 48.3316 65.199 49.4729 65.0957 51.5754L71.924 130.889C72.0808 132.71 73.3081 133.656 75.6051 133.717L75.8189 133.698C78.0938 133.502 79.1193 132.104 78.8947 129.496L72.202 51.7562C71.9781 49.1564 70.728 47.9458 68.4531 48.1416L68.2393 48.1601Z" fill="#01245A"/>
<path d="M159.003 13.9415C172.963 7.16538 187.718 6.92893 203.277 13.2229C215.357 18.8342 224.013 27.0147 229.219 37.7496L230.047 39.4617C236.069 51.8667 236.605 65.3902 231.653 80.0323C226.23 93.6897 217.39 103.497 205.15 109.436C193.167 115.249 180.231 116.208 166.342 112.303C151.44 107.228 140.841 98.1979 134.546 85.2305L134.169 84.4531C127.194 70.0797 127.215 54.811 134.248 38.637C139.9 27.4326 148.152 19.2007 158.994 13.9337L159.003 13.9415ZM139.312 82.3475C145.083 94.2314 154.707 102.449 168.194 106.992C180.381 110.44 191.923 109.515 202.815 104.226C214.591 98.5084 222.751 88.906 227.302 75.4185C230.698 63.1331 229.825 51.6892 224.692 41.1031C218.775 28.9131 208.919 20.6118 195.118 16.2257C183.187 13.0398 172.139 13.9134 161.968 18.8557L160.727 19.4621C148.43 25.4317 140.208 35.703 136.061 50.2844C133.444 61.8134 134.536 72.5061 139.322 82.3638L139.312 82.3475ZM163.381 22.9642C154.978 27.0391 148.396 33.4386 143.649 42.1527C137.634 55.6457 137.438 68.1811 143.053 79.7596L143.43 80.537C144.089 81.8846 145.314 82.3132 147.133 81.8206C148.117 81.3396 148.671 80.37 148.795 78.9034C145.673 72.4691 144.306 65.6944 144.701 58.5783C146.831 44.0844 153.684 34.0258 165.254 28.4117L165.569 28.264C167.235 27.1987 167.713 25.9428 167.01 24.4869L166.781 24.0242C166.247 22.9329 165.123 22.5817 163.391 22.9806L163.381 22.9642Z" fill="#01245A"/>
<path d="M109.869 16.7308C124.06 9.83993 139.074 9.5985 154.893 16.0079C167.179 21.7135 175.976 30.0283 181.276 40.9533L182.124 42.6982C188.241 55.3103 188.788 69.0655 183.763 83.9551C178.248 97.8445 169.266 107.811 156.812 113.854C144.622 119.771 131.463 120.74 117.353 116.769C102.202 111.603 91.4173 102.425 85.0175 89.2341L84.6304 88.4403C77.5395 73.827 77.5633 58.291 84.7116 41.8487C90.4595 30.455 98.8454 22.0824 109.878 16.73L109.869 16.7308ZM89.8483 86.3024C95.7133 98.3849 105.505 106.743 119.222 111.361C131.612 114.869 143.352 113.927 154.434 108.553C166.409 102.741 174.71 92.9797 179.335 79.2531C182.791 66.7559 181.901 55.1238 176.675 44.3562C170.654 31.9598 160.631 23.5178 146.599 19.0482C134.465 15.8108 123.23 16.7006 112.883 21.7182L111.618 22.3354C99.1137 28.4004 90.752 38.8559 86.5397 53.6756C83.8787 65.3979 84.987 76.2702 89.8562 86.2932L89.8483 86.3024ZM114.33 25.9101C105.778 30.0581 99.0925 36.5612 94.2644 45.4288C88.1487 59.1545 87.9455 71.9058 93.6535 83.6659L94.0406 84.4596C94.7101 85.8322 95.9624 86.2672 97.8059 85.7638C98.8068 85.2813 99.3673 84.2854 99.4972 82.7923C96.3235 76.2506 94.9373 69.3568 95.331 62.1202C97.499 47.3732 104.468 37.1496 116.236 31.4409L116.55 31.2846C118.24 30.2 118.725 28.9262 118.012 27.4455L117.782 26.9742C117.247 25.8657 116.096 25.5082 114.33 25.9101Z" fill="#01245A"/>
</svg>
