<svg width="118" height="71" viewBox="0 0 118 71" fill="none" xmlns="http://www.w3.org/2000/svg">
<g clip-path="url(#clip0_36_7790)">
<path d="M22.7057 0H22.8543C23.4222 0 23.7938 0.364133 23.9663 1.0924C23.9663 1.52518 23.1992 2.36388 21.6651 3.61447L4.15642 19.7706H18.4779C19.2688 19.8841 19.6642 20.2482 19.6642 20.8601C19.5393 21.5883 19.1439 21.9495 18.4779 21.9495H1.18627C0.395424 21.8361 0 21.4719 0 20.8601C0 20.4273 0.594623 19.7468 1.7809 18.8155C15.3086 6.31861 22.1378 0.0686481 22.2597 0.0686481L22.7057 0ZM22.7057 5.9306L22.2597 5.99924C21.6651 6.40815 18.6236 9.04364 13.1323 13.9087C11.2027 15.4757 10.2394 16.4308 10.2394 16.771V17.0426C10.2394 17.4963 10.5843 17.8157 11.277 17.9977H11.7973C11.946 17.9977 15.3086 15.0876 21.8881 9.27047C23.2736 8.20195 23.9663 7.45279 23.9663 7.02001C23.9663 6.40516 23.5709 6.04401 22.78 5.92761H22.7057V5.9306ZM22.7057 11.8612C22.013 11.8612 21.6175 12.2253 21.5194 12.9506V40.6307C21.5194 41.2664 21.9148 41.6306 22.7057 41.7201H22.78C23.5709 41.7201 23.9663 41.2664 23.9663 40.3561V13.2252C23.9663 12.3178 23.5709 11.8612 22.78 11.8612H22.7057Z" fill="white"/>
<path d="M56.2595 10.8941C61.2781 8.96297 66.377 9.32114 71.5592 11.9656C75.561 14.2698 78.3052 17.3619 79.7828 21.2361L80.0177 21.8539C81.7272 26.3309 81.5102 31.0318 79.3666 35.9566C77.0891 40.5262 73.7474 43.6601 69.3472 45.3524C65.0391 47.0089 60.5467 46.9552 55.87 45.1883C50.8782 42.9855 47.4888 39.5412 45.702 34.8612L45.5949 34.5806C43.6148 29.3932 44.0757 24.1043 46.9834 18.711C49.2667 14.998 52.3588 12.3924 56.2565 10.8911L56.2595 10.8941ZM47.4323 34.0046C49.0705 38.2936 52.1477 41.4275 56.6668 43.4034C60.7697 44.9614 64.7804 44.9853 68.696 43.478C72.9298 41.8484 76.0307 38.7652 78.0019 34.2284C79.539 30.0737 79.5776 26.0832 78.1208 22.2628C76.441 17.8633 73.2865 14.6936 68.6544 12.7625C64.6318 11.303 60.7935 11.2761 57.1366 12.6849L56.6906 12.858C52.2696 14.5593 49.127 17.8723 47.2628 22.8C46.0171 26.716 46.0766 30.4528 47.4353 34.0106L47.4323 34.0046ZM57.5023 14.1504C54.4816 15.3114 52.0198 17.3321 50.123 20.2093C47.6464 24.7043 47.2064 29.041 48.7999 33.2196L48.907 33.5002C49.0943 33.9867 49.5046 34.1717 50.1468 34.0553C50.5006 33.918 50.7206 33.5987 50.8068 33.0943C49.9208 30.7722 49.6503 28.3844 49.9981 25.931C51.1636 20.9734 53.8275 17.6932 57.9869 16.0934L58.0999 16.0516C58.7064 15.7323 58.9085 15.3114 58.7093 14.7861L58.6439 14.619C58.4923 14.225 58.1147 14.0698 57.5052 14.1563L57.5023 14.1504Z" fill="white"/>
<path d="M38.0053 2.21473C43.1072 0.250801 48.2953 0.614934 53.5637 3.30713C57.6339 5.65012 60.4226 8.79301 61.927 12.7358L62.1679 13.3656C63.9042 17.9172 63.6841 22.6987 61.5078 27.707C59.1918 32.3542 55.7965 35.5389 51.319 37.2611C46.9366 38.9474 42.3669 38.8907 37.6159 37.0939C32.5407 34.8524 29.0919 31.3514 27.2754 26.5908L27.1654 26.3042C25.1526 21.0303 25.6223 15.6489 28.5776 10.166C30.8996 6.39033 34.0422 3.73991 38.0083 2.21473H38.0053ZM29.0295 25.7192C30.6944 30.0799 33.8251 33.2675 38.4216 35.2762C42.5929 36.8611 46.672 36.885 50.6559 35.3538C54.961 33.6973 58.1155 30.5634 60.1194 25.9461C61.6832 21.7197 61.7219 17.6635 60.2383 13.7775C58.5288 9.30339 55.3208 6.07992 50.6113 4.113C46.5203 2.62961 42.6166 2.60274 38.8973 4.03241L38.4424 4.20851C33.947 5.93665 30.7509 9.30936 28.8571 14.3177C27.5905 18.2993 27.65 22.0988 29.0325 25.7162L29.0295 25.7192ZM39.2719 5.52775C36.1977 6.70969 33.6973 8.76316 31.7677 11.6911C29.2495 16.2637 28.8006 20.6751 30.4209 24.9193L30.5309 25.2059C30.7212 25.7013 31.1404 25.8894 31.7915 25.77C32.1513 25.6327 32.3743 25.3044 32.4635 24.791C31.5626 22.4301 31.2891 20.0005 31.6399 17.5053C32.8262 12.4612 35.5347 9.12729 39.7654 7.50063L39.8784 7.45586C40.4938 7.13053 40.699 6.70372 40.4968 6.16946L40.4314 5.99933C40.2798 5.59938 39.8933 5.44119 39.2719 5.52775Z" fill="white"/>
<path fill-rule="evenodd" clip-rule="evenodd" d="M51.2659 52.1576L63.1881 52.1516L63.1821 54.3513H56.6115C58.1754 56.566 63.637 59.8671 60.7233 64.1173C59.323 66.1588 55.7731 66.8692 53.7335 64.944C50.6118 61.9922 52.0032 57.4495 55.6512 56.9659C55.3182 56.3809 51.2659 52.1576 51.2659 52.1576ZM56.7453 63.8427C60.2239 63.9561 59.9325 58.0524 56.0615 59.1657C53.5552 59.885 54.1765 63.7591 56.7453 63.8427Z" fill="white"/>
<path fill-rule="evenodd" clip-rule="evenodd" d="M34.4108 52.2889H34.6844V68.1078C34.6844 68.1078 32.9064 69.7792 32.2167 70.1702V56.9629C25.4796 61.2967 19.1707 66.0603 12.6209 70.5821C11.8687 70.2359 11.6903 69.3136 11.1135 68.7943C18.7247 63.1383 26.6778 57.8255 34.4079 52.2859L34.4108 52.2889Z" fill="white"/>
<path fill-rule="evenodd" clip-rule="evenodd" d="M41.9774 61.6668C41.909 61.6966 38.2878 65.0723 36.4712 66.4602C36.4831 66.3617 36.4653 57.2434 36.4653 57.2434H38.6565V61.6459C40.2441 60.3863 42.0577 58.3478 44.2756 57.2434C48.4767 55.1512 53.0999 60.0431 50.3051 64.1202C48.325 67.0094 41.912 66.5557 41.9774 61.6668ZM44.0021 61.5086C44.0913 64.6634 48.9761 64.3918 48.9345 61.3713C48.9078 59.4103 47.2666 58.6761 45.6463 59.1716C44.2578 59.5954 43.9724 60.5117 44.0021 61.5086Z" fill="white"/>
<path fill-rule="evenodd" clip-rule="evenodd" d="M71.5828 62.4249C71.4847 62.4428 64.9647 62.4697 64.9647 62.4697C64.8012 63.7322 67.7773 64.3888 68.8 63.2964L70.3074 64.8097C66.8288 67.7436 61.5783 64.9052 62.497 60.2699C63.5019 55.1989 72.5759 55.7601 71.5799 62.4249H71.5828ZM64.8279 60.5445H69.35C69.0289 58.4612 65.1193 58.3717 64.8279 60.5445Z" fill="white"/>
<path fill-rule="evenodd" clip-rule="evenodd" d="M75.2433 65.4961L75.2373 70.9999H72.9153C72.9153 70.9999 72.8559 64.6306 72.9153 60.4072C72.9837 55.5063 81.4452 55.5929 82.0963 60.2699C82.7117 64.6903 78.9299 67.1168 75.2433 65.4991V65.4961ZM77.5712 63.8456C80.8625 63.7859 80.6068 58.0791 76.7506 59.1686C74.1759 59.8968 74.8776 63.8963 77.5712 63.8456Z" fill="white"/>
<path fill-rule="evenodd" clip-rule="evenodd" d="M117.999 57.1569C117.999 57.1569 108.97 63.6576 104.225 66.6751V57.0107H106.594V62.0668C109.785 60.261 116.519 55.2258 116.519 55.2258L117.999 57.1599V57.1569Z" fill="white"/>
<path fill-rule="evenodd" clip-rule="evenodd" d="M85.5603 57.0078V63.5443L89.2619 63.5503V57.0078H91.6314V63.5443L94.444 63.5503L93.112 66.0783H83.1937L83.1878 57.0138L85.5573 57.0078H85.5603Z" fill="white"/>
<path fill-rule="evenodd" clip-rule="evenodd" d="M97.5595 58.7895C97.5059 58.2015 97.5535 57.0046 97.5535 57.0046H95.1899C95.1899 57.0046 95.1958 60.258 95.1899 60.4072C94.9669 64.9768 96.2335 66.0005 97.7081 66.3736C104.677 68.1346 104.662 56.4823 97.5595 58.7895ZM99.0966 64.3589C98.0798 64.3589 97.2562 63.5322 97.2562 62.5114C97.2562 62.2577 97.3067 62.013 97.4019 61.7921C97.4346 61.6936 97.4792 61.61 97.5357 61.5384C97.8597 61.0131 98.4365 60.6639 99.0966 60.6639C100.113 60.6639 100.937 61.4906 100.937 62.5114C100.937 63.5322 100.113 64.3589 99.0966 64.3589Z" fill="white"/>
</g>
<defs>
<clipPath id="clip0_36_7790">
<rect width="118" height="71" fill="white"/>
</clipPath>
</defs>
</svg>
