<svg width="235" height="56" viewBox="0 0 235 56" fill="none" xmlns="http://www.w3.org/2000/svg">
<path d="M27.0746 0H27.2519C27.929 0 28.3722 0.432513 28.5778 1.29754C28.5778 1.81159 27.6631 2.80779 25.8338 4.29323L4.95618 23.4833H22.0334C22.9764 23.6181 23.4479 24.0506 23.4479 24.7773C23.299 25.6424 22.8275 26.0713 22.0334 26.0713H1.41453C0.47151 25.9366 0 25.5041 0 24.7773C0 24.2633 0.709038 23.455 2.12357 22.3489C18.2542 7.50517 26.3975 0.0815394 26.5428 0.0815394L27.0746 0ZM27.0746 7.04429L26.5428 7.12583C25.8338 7.61152 22.2071 10.7419 15.6591 16.5206C13.3583 18.3818 12.2096 19.5163 12.2096 19.9204V20.243C12.2096 20.7819 12.6209 21.1612 13.4469 21.3775H14.0673C14.2446 21.3775 18.2542 17.9209 26.0997 11.0114C27.7517 9.74218 28.5778 8.85234 28.5778 8.33829C28.5778 7.60798 28.1063 7.17901 27.1632 7.04075H27.0746V7.04429ZM27.0746 14.0886C26.2486 14.0886 25.7771 14.5211 25.6601 15.3826V48.2607C25.6601 49.0158 26.1316 49.4483 27.0746 49.5547H27.1632C28.1063 49.5547 28.5778 49.0158 28.5778 47.9345V15.7087C28.5778 14.631 28.1063 14.0886 27.1632 14.0886H27.0746Z" fill="#01245A"/>
<path d="M67.0857 12.9397C73.07 10.646 79.15 11.0714 85.3293 14.2124C90.1011 16.9493 93.3733 20.6221 95.1353 25.2238L95.4154 25.9576C97.4538 31.2754 97.195 36.8591 94.639 42.7087C91.9233 48.1363 87.9385 51.8588 82.6917 53.8689C77.5547 55.8365 72.1979 55.7727 66.6213 53.6739C60.6689 51.0576 56.6274 46.9664 54.4968 41.4076L54.3691 41.0743C52.008 34.9128 52.5575 28.6307 56.0247 22.2246C58.7474 17.8143 62.4344 14.7194 67.0822 12.9362L67.0857 12.9397ZM56.5601 40.3901C58.5135 45.4845 62.1827 49.207 67.5714 51.5539C72.4638 53.4045 77.2462 53.4329 81.9153 51.6425C86.9636 49.7069 90.6612 46.0447 93.0117 40.656C94.8446 35.7211 94.8907 30.9812 93.1535 26.4433C91.1505 21.2177 87.389 17.4527 81.8656 15.159C77.069 13.4254 72.4921 13.3935 68.1316 15.0668L67.5998 15.2724C62.3281 17.2932 58.5808 21.2284 56.358 27.0815C54.8726 31.7328 54.9435 36.1713 56.5636 40.3972L56.5601 40.3901ZM68.5676 16.8075C64.9657 18.1866 62.0303 20.5867 59.7685 24.0042C56.8153 29.3433 56.2906 34.4945 58.1908 39.4577L58.3185 39.791C58.5418 40.3688 59.0311 40.5886 59.7968 40.4504C60.2187 40.2873 60.481 39.908 60.5839 39.3088C59.5274 36.5507 59.2048 33.7145 59.6196 30.8004C61.0093 24.9118 64.1858 21.0156 69.1455 19.1154L69.2802 19.0658C70.0034 18.6865 70.2445 18.1866 70.007 17.5626L69.929 17.3641C69.7482 16.8961 69.2979 16.7118 68.5712 16.8146L68.5676 16.8075Z" fill="#01245A"/>
<path d="M45.3186 2.63057C51.4021 0.297832 57.5885 0.730345 63.8706 3.92811C68.7239 6.71108 72.0493 10.4442 73.8432 15.1274L74.1303 15.8754C76.2007 21.2818 75.9384 26.9612 73.3433 32.91C70.5816 38.4299 66.533 42.2126 61.1939 44.2582C55.9683 46.2612 50.5194 46.1939 44.8542 44.0597C38.8025 41.3972 34.6901 37.2387 32.524 31.5841L32.3928 31.2438C29.9927 24.9794 30.5529 18.5875 34.0768 12.075C36.8456 7.59029 40.5928 4.44216 45.3221 2.63057H45.3186ZM34.6156 30.5489C36.601 35.7285 40.334 39.5147 45.8149 41.9006C50.7888 43.7831 55.6528 43.8115 60.4034 41.9928C65.5368 40.0252 69.2982 36.3028 71.6877 30.8184C73.5525 25.7984 73.5986 20.9805 71.8295 16.3646C69.791 11.0504 65.9658 7.22159 60.3502 4.88531C55.472 3.12335 50.8172 3.09144 46.3821 4.78959L45.8397 4.99875C40.4794 7.05142 36.6683 11.0575 34.41 17.0063C32.8998 21.7356 32.9707 26.2486 34.6192 30.5454L34.6156 30.5489ZM46.8288 6.56573C43.1631 7.96962 40.1816 10.4087 37.8808 13.8865C34.878 19.3178 34.3427 24.5576 36.2748 29.5988L36.406 29.9392C36.6329 30.5277 37.1327 30.751 37.9091 30.6092C38.3381 30.4461 38.604 30.0562 38.7103 29.4464C37.6362 26.6421 37.31 23.7564 37.7283 20.7926C39.1429 14.8012 42.3725 10.8412 47.4173 8.9091L47.5521 8.85592C48.2859 8.4695 48.5305 7.96253 48.2895 7.32794L48.2115 7.12587C48.0307 6.65081 47.5698 6.46292 46.8288 6.56573Z" fill="#01245A"/>
<path fill-rule="evenodd" clip-rule="evenodd" d="M132.838 13.9704C130.155 14.3214 125.748 13.9775 123.507 14.1619C123.281 15.9061 127.414 16.8172 128.839 15.3034L130.935 17.3986C126.099 21.4614 118.807 17.5298 120.079 11.1166C121.473 4.09709 134.217 4.74586 132.838 13.974V13.9704ZM123.32 11.4959H129.602C129.155 8.61011 123.724 8.48958 123.32 11.4959Z" fill="#01245A"/>
<path fill-rule="evenodd" clip-rule="evenodd" d="M101.392 18.6076C107.419 14.6688 112.999 10.2834 119.101 6.42273V18.799H116.055V12.3255C111.954 14.6369 107.43 18.1715 103.296 21.0856C102.332 20.5893 101.889 19.5754 101.392 18.6111V18.6076Z" fill="#01245A"/>
<path fill-rule="evenodd" clip-rule="evenodd" d="M144.729 6.45105H133.044V9.03904H137.585V19.235H140.191V9.03904H144.729V6.45105Z" fill="#01245A"/>
<path fill-rule="evenodd" clip-rule="evenodd" d="M155.425 18.3168L169.641 18.3097L169.634 20.9225H161.799C163.664 23.553 170.176 27.474 166.702 32.5224C165.032 34.9473 160.799 35.791 158.367 33.5044C154.645 29.9982 156.304 24.6024 160.654 24.0281C160.257 23.3332 155.425 18.3168 155.425 18.3168ZM161.958 32.1962C166.106 32.3309 165.759 25.3185 161.143 26.6409C158.154 27.4953 158.895 32.0969 161.958 32.1962Z" fill="#016BFD"/>
<path fill-rule="evenodd" clip-rule="evenodd" d="M135.327 18.4728H135.653V37.2623C135.653 37.2623 133.533 39.2476 132.711 39.712V24.0246C124.677 29.1722 117.154 34.8303 109.344 40.2013C108.447 39.79 108.235 38.6946 107.547 38.0777C116.623 31.3596 126.106 25.0491 135.324 18.4692L135.327 18.4728Z" fill="#016BFD"/>
<path fill-rule="evenodd" clip-rule="evenodd" d="M144.35 29.6117C144.268 29.6472 139.95 33.6568 137.784 35.3053C137.798 35.1883 137.777 24.3578 137.777 24.3578H140.39V29.5869C142.283 28.0909 144.445 25.6695 147.09 24.3578C152.099 21.8726 157.612 27.6832 154.28 32.5259C151.919 35.9576 144.272 35.4188 144.35 29.6117V29.6117ZM146.764 29.4239C146.87 33.1711 152.695 32.8485 152.645 29.2608C152.613 26.9316 150.657 26.0595 148.724 26.648C147.069 27.1514 146.728 28.2398 146.764 29.4239Z" fill="#016BFD"/>
<path fill-rule="evenodd" clip-rule="evenodd" d="M179.653 30.5122C179.536 30.5335 171.761 30.5654 171.761 30.5654C171.566 32.065 175.115 32.845 176.334 31.5474L178.132 33.3448C173.984 36.8298 167.723 33.4583 168.819 27.9526C170.017 21.9293 180.837 22.5958 179.649 30.5122H179.653ZM171.598 28.2788H176.99C176.607 25.8042 171.945 25.6979 171.598 28.2788Z" fill="#016BFD"/>
<path fill-rule="evenodd" clip-rule="evenodd" d="M184.017 34.1603L184.01 40.6976H181.241C181.241 40.6976 181.17 33.1322 181.241 28.1157C181.322 22.2945 191.412 22.3973 192.188 27.9526C192.922 33.2031 188.413 36.0853 184.017 34.1638V34.1603ZM186.793 32.1998C190.717 32.1289 190.412 25.3505 185.814 26.6445C182.744 27.5095 183.581 32.26 186.793 32.1998Z" fill="#016BFD"/>
<path fill-rule="evenodd" clip-rule="evenodd" d="M235 24.2549C235 24.2549 224.233 31.9763 218.575 35.5605V24.0812H221.401V30.0868C225.205 27.9419 233.235 21.9612 233.235 21.9612L235 24.2585V24.2549Z" fill="#016BFD"/>
<path fill-rule="evenodd" clip-rule="evenodd" d="M196.318 24.0778V31.8417L200.732 31.8488V24.0778H203.558V31.8417L206.911 31.8488L205.323 34.8516H193.496L193.489 24.0849L196.315 24.0778H196.318Z" fill="#016BFD"/>
<path fill-rule="evenodd" clip-rule="evenodd" d="M210.627 26.1942C210.563 25.4958 210.62 24.0742 210.62 24.0742H207.801C207.801 24.0742 207.808 27.9385 207.801 28.1157C207.536 33.5434 209.046 34.7594 210.804 35.2026C219.114 37.2942 219.096 23.4538 210.627 26.1942V26.1942ZM212.46 32.8096C211.247 32.8096 210.265 31.8275 210.265 30.6151C210.265 30.3138 210.326 30.023 210.439 29.7607C210.478 29.6437 210.531 29.5444 210.599 29.4594C210.985 28.8354 211.673 28.4206 212.46 28.4206C213.672 28.4206 214.654 29.4026 214.654 30.6151C214.654 31.8275 213.672 32.8096 212.46 32.8096Z" fill="#016BFD"/>
</svg>
