<?xml version="1.0" encoding="UTF-8"?>
<svg id="_Слой_2" data-name="Слой 2" xmlns="http://www.w3.org/2000/svg" viewBox="0 0 304.87 215.78">
  <defs>
    <style>
      .cls-1, .cls-2 {
        fill: #002d56;
      }

      .cls-2 {
        fill-rule: evenodd;
      }
    </style>
  </defs>
  <g id="_Слой_1-2" data-name="Слой 1">
    <g>
      <path class="cls-1" d="M86.28,.31h.56c2.15,0,3.56,1.37,4.22,4.12,0,1.63-2.91,4.8-8.72,9.52L16,74.92h54.26c3,.43,4.5,1.8,4.5,4.12-.47,2.75-1.97,4.12-4.5,4.12H4.76c-3-.43-4.5-1.8-4.5-4.12,0-1.63,2.25-4.2,6.75-7.72C58.26,24.15,84.13,.57,84.59,.57l1.69-.26h0Zm0,22.38h0l-1.69,.26c-2.25,1.54-13.77,11.49-34.58,29.85-7.31,5.92-10.96,9.52-10.96,10.81v1.03c0,1.72,1.31,2.92,3.94,3.6h1.97c.56,0,13.3-10.98,38.23-32.93,5.25-4.03,7.87-6.86,7.87-8.49,0-2.32-1.5-3.69-4.5-4.12h-.28Zm0,22.38h0c-2.62,0-4.13,1.37-4.5,4.12V123.16c0,2.4,1.5,3.78,4.5,4.12h.28c3,0,4.5-1.71,4.5-5.15V50.22c0-3.43-1.5-5.15-4.5-5.15h-.28Z"/>
      <g>
        <path class="cls-2" d="M74.59,153.83c-6.36,.83-16.82,.02-22.13,.45-.54,4.14,9.27,6.3,12.65,2.71l4.97,4.97c-11.47,9.64-28.77,.31-25.74-14.9,3.31-16.65,33.54-15.12,30.26,6.77h0Zm-22.58-5.87h14.9c-1.06-6.84-13.94-7.13-14.9,0Z"/>
        <path class="cls-2" d="M0,164.83c14.3-9.34,27.53-19.74,42-28.91v29.36h-7.23v-15.36c-9.72,5.48-20.46,13.87-30.26,20.78-2.29-1.17-3.34-3.59-4.52-5.87Z"/>
        <polygon class="cls-2" points="102.79 136 75.08 136 75.08 142.13 85.85 142.13 85.85 166.31 92.02 166.31 92.02 142.13 102.79 142.13 102.79 136"/>
      </g>
      <g>
        <g>
          <path class="cls-2" d="M121.26,164.14l32.8-.02-.02,6.03h-18.08c4.31,6.07,19.33,15.12,11.31,26.77-3.85,5.59-13.62,7.54-19.23,2.26-8.59-8.09-4.76-20.54,5.28-21.87-.91-1.6-12.06-13.18-12.06-13.18h0Zm15.08,32.03h0c9.57,.31,8.77-15.87-1.88-12.82-6.89,1.97-5.18,12.59,1.88,12.82Z"/>
          <path class="cls-2" d="M74.89,164.5h.75v43.36s-4.89,4.58-6.79,5.66v-36.19c-18.54,11.88-35.89,24.93-53.91,37.32-2.07-.95-2.56-3.48-4.15-4.9,20.94-15.5,42.82-30.06,64.09-45.24Z"/>
          <path class="cls-2" d="M95.71,190.2c-.19,.08-10.15,9.33-15.15,13.14,.03-.27-.02-25.26-.02-25.26h6.03v12.06c4.36-3.45,9.36-9.04,15.46-12.06,11.56-5.73,24.28,7.68,16.59,18.85-5.45,7.92-23.09,6.68-22.91-6.73h0Zm5.57-.44h0c.25,8.65,13.68,7.9,13.57-.38-.07-5.37-4.59-7.39-9.05-6.03-3.82,1.16-4.6,3.67-4.52,6.41Z"/>
          <path class="cls-2" d="M177.17,192.28c-.27,.05-18.21,.12-18.21,.12-.45,3.46,7.74,5.26,10.56,2.26l4.15,4.15c-9.57,8.04-24.01,.26-21.49-12.44,2.76-13.9,27.73-12.36,24.99,5.91h0Zm-18.58-5.16h12.44c-.89-5.71-11.64-5.96-12.44,0Z"/>
          <path class="cls-2" d="M187.24,200.69l-.02,15.08h-6.39s-.16-17.45,0-29.03c.19-13.43,23.47-13.19,25.26-.38,1.7,12.11-8.72,18.77-18.85,14.33h0Zm6.41-4.52h0c9.05-.17,8.35-15.8-2.26-12.82-7.09,1.99-5.16,12.95,2.26,12.82Z"/>
        </g>
        <path class="cls-2" d="M304.87,177.84s-24.84,17.81-37.9,26.08v-26.49h6.52v13.86c8.78-4.95,27.3-18.75,27.3-18.75l4.08,5.3Z"/>
        <path class="cls-2" d="M215.62,177.43v17.91l10.19,.02v-17.93h6.52v17.91l7.74,.02-3.67,6.93h-27.29l-.02-24.84,6.52-.02Z"/>
        <path class="cls-2" d="M248.63,182.32c-.15-1.61-.02-4.89-.02-4.89h-6.5s.02,8.91,0,9.32c-.62,12.52,2.87,15.33,6.93,16.35,19.17,4.83,19.13-27.11-.41-20.79h0Zm4.23,15.27h0c-2.8,0-5.06-2.27-5.06-5.06,0-.7,.14-1.36,.4-1.97,.09-.27,.21-.5,.37-.7,.89-1.44,2.48-2.39,4.3-2.39,2.8,0,5.06,2.27,5.06,5.06s-2.27,5.06-5.06,5.06Z"/>
      </g>
      <path class="cls-2" d="M178.68,94.75c0-88.51,0,26.17,0,0h0Zm-5.47,.84h0c0,16.06,6.17,30.16,18.52,42.3,11.5,10.24,24.62,15.36,39.35,15.36,15.92,0,29.95-6.17,42.09-18.52,10.24-11.64,15.36-24.62,15.36-38.93,0-16.48-6.38-30.79-19.15-42.93-11.37-9.82-23.92-14.73-37.67-14.73-18.24,0-32.91,7.04-45.03,20.62-8.98,11.22-13.47,23.5-13.47,36.83h0ZM231.08,31.2h0c18.87,0,35.14,7.58,48.82,22.73,10.24,12.56,15.36,26.1,15.36,40.62v2.31c0,16.77-6.59,31.85-19.78,45.24-13.19,12.07-28.06,18.1-44.61,18.1s-30.86-5.82-43.98-17.47c-13.61-13.47-20.41-28.97-20.41-46.51v-1.05c0-19.43,8.14-36.12,24.41-50.08,12.13-9.26,25.53-13.89,40.19-13.89Z"/>
      <path class="cls-2" d="M212.92,48.83c1.86,.02,2.93,.64,3.21,1.88l.12,.53c.37,1.65-.42,2.82-2.37,3.5l-.35,.08c-13.13,2.95-22.52,11.56-28.16,25.81-2.1,7.16-2.34,14.38-.7,21.69-.48,1.47-1.27,2.33-2.39,2.58-1.97,.07-3.12-.66-3.46-2.19-3.25-14.46,.55-27.39,9.41-39.05,6.92-7.74,15.15-12.68,24.69-14.83Z"/>
      <path class="cls-2" d="M162.27,12.34c2.13,.5,3.19,1.49,3.19,2.98v.64c0,1.99-1.21,3.12-3.62,3.41h-.43c-15.82,0-28.8,7.45-38.95,22.35-4.26,7.66-6.39,15.89-6.39,24.69-.92,1.56-2.06,2.34-3.4,2.34-2.27-.42-3.41-1.56-3.41-3.4v-1.06c0-15.82,6.95-29.58,20.86-41.29,9.93-7.09,20.64-10.64,32.14-10.64h0Zm-58.53,52.78h0c0,16.25,6.24,30.51,18.73,42.78,11.63,10.36,24.9,15.54,39.8,15.54,16.1,0,30.29-6.24,42.57-18.73,10.36-11.78,15.54-24.9,15.54-39.37,0-16.67-6.46-31.14-19.37-43.42-11.49-9.93-24.19-14.9-38.1-14.9h-1.7c-16.81,0-31.43,6.95-43.84,20.86-9.08,11.35-13.62,23.77-13.62,37.24h0ZM162.27,0h0c-14.83,0-28.38,4.68-40.65,14.05-16.46,14.12-24.69,31-24.69,50.65v1.07c0,17.74,6.88,33.41,20.64,47.03,13.27,11.78,28.09,17.67,44.48,17.67,16.74,0,31.78-6.1,45.12-18.3,13.33-13.55,20.01-28.8,20.01-45.76v-2.34c0-14.68-5.18-28.38-15.54-41.08C197.81,7.66,181.35,0,162.27,0Z"/>
    </g>
  </g>
</svg>