<svg width="30" height="26" viewBox="0 0 30 26" fill="none" xmlns="http://www.w3.org/2000/svg">
<path d="M1.80504 11.8664C1.80504 11.8664 14.8256 6.38232 19.3414 4.45125C21.0725 3.67888 26.943 1.2071 26.943 1.2071C26.943 1.2071 29.6526 0.12579 29.4268 2.75194C29.3514 3.83335 28.7494 7.6181 28.1473 11.7119C27.2441 17.505 26.2657 23.8387 26.2657 23.8387C26.2657 23.8387 26.1151 25.6153 24.8357 25.9243C23.5562 26.2332 21.4488 24.843 21.0725 24.5339C20.7714 24.3022 15.4277 20.8263 13.4709 19.127C12.944 18.6636 12.3419 17.7368 13.5461 16.6554C16.2556 14.1064 19.4919 10.9395 21.4488 8.93128C22.352 8.00434 23.2551 5.84161 19.4919 8.46776C14.1483 12.2526 8.87981 15.8057 8.87981 15.8057C8.87981 15.8057 7.67556 16.5781 5.41769 15.8829C3.1597 15.1878 0.525477 14.2609 0.525477 14.2609C0.525477 14.2609 -1.28074 13.1023 1.80504 11.8664Z" fill="white"/>
</svg>
