<svg width="40" height="22" viewBox="0 0 40 22" fill="none" xmlns="http://www.w3.org/2000/svg">
<path fill-rule="evenodd" clip-rule="evenodd" d="M38.6741 1.78487C38.9445 0.93882 38.6741 0.317139 37.3869 0.317139H33.1304C32.0481 0.317139 31.5491 0.854179 31.2785 1.44638C31.2785 1.44638 29.114 6.3957 26.0476 9.61061C25.0555 10.5412 24.6045 10.8373 24.0634 10.8373C23.7928 10.8373 23.4012 10.5412 23.4012 9.69525V1.78487C23.4012 0.769612 23.0871 0.317139 22.1851 0.317139H15.4963C14.82 0.317139 14.4132 0.788344 14.4132 1.23492C14.4132 2.19736 15.9464 2.41932 16.1044 5.12667V11.0066C16.1044 12.2958 15.8562 12.5295 15.3151 12.5295C13.8721 12.5295 10.362 7.55806 8.28026 1.86944C7.87229 0.763771 7.46309 0.317139 6.37525 0.317139H2.11875C0.902604 0.317139 0.659363 0.854179 0.659363 1.44638C0.659363 2.50396 2.10241 7.74938 7.37843 14.6868C10.8958 19.4245 15.8514 21.9927 20.3609 21.9927C23.0665 21.9927 23.4012 21.4223 23.4012 20.4398V16.859C23.4012 15.7182 23.6576 15.4906 24.5144 15.4906C25.1457 15.4906 26.2279 15.7867 28.7533 18.0709C31.6393 20.7782 32.1151 21.9927 33.7385 21.9927H37.995C39.2111 21.9927 39.8192 21.4223 39.4684 20.2967C39.0845 19.1747 37.7066 17.547 35.8782 15.6174C34.8861 14.5176 33.398 13.3332 32.947 12.7409C32.3157 11.9795 32.4961 11.6411 32.947 10.9643C32.947 10.9643 38.1329 4.11141 38.6741 1.78487Z" fill="white"/>
</svg>
