<svg width="181" height="251" viewBox="0 0 181 251" fill="none" xmlns="http://www.w3.org/2000/svg">
<path d="M180.676 4.6592C180.154 1.70178 177.332 -0.279871 174.389 0.315365C148.201 5.61114 123.197 15.6902 100.637 30.0624C76.548 45.409 55.7172 65.3501 39.3344 88.7471C22.9516 112.144 11.3377 138.539 5.15561 166.424C-0.633908 192.539 -1.55324 219.483 2.42712 245.902C2.87451 248.872 5.70179 250.846 8.65921 250.324V250.324C11.6166 249.803 13.5839 246.983 13.1404 244.013C9.40572 219.001 10.2924 193.499 15.7728 168.778C21.6458 142.287 32.6791 117.212 48.2427 94.9848C63.8063 72.7576 83.5956 53.8135 106.48 39.2342C127.836 25.6294 151.496 16.074 176.278 11.0287C179.221 10.4296 181.197 7.61663 180.676 4.6592V4.6592Z" fill="white"/>
</svg>
