<svg width="558" height="334" viewBox="0 0 558 334" fill="none" xmlns="http://www.w3.org/2000/svg">
<g clip-path="url(#clip0_36_7975)">
<path d="M107.371 0H108.074C110.759 0 112.517 1.71296 113.332 5.13889C113.332 7.17479 109.705 11.1202 102.45 17.0033L19.6549 93.0055H87.3786C91.1184 93.5391 92.9883 95.2521 92.9883 98.1304C92.3978 101.556 90.5279 103.255 87.3786 103.255H5.60966C1.86989 102.722 0 101.009 0 98.1304C0 96.0945 2.81186 92.8932 8.42153 88.5125C72.3914 29.7241 104.686 0.322936 105.262 0.322936L107.371 0ZM107.371 27.8989L105.262 28.2218C102.45 30.1454 88.0675 42.5433 62.1 65.4296C52.9755 72.801 48.4203 77.294 48.4203 78.8947V80.1724C48.4203 82.3065 50.0511 83.8089 53.327 84.6654H55.7873C56.4903 84.6654 72.3914 70.9757 103.505 43.6104C110.056 38.5838 113.332 35.0596 113.332 33.0237C113.332 30.1313 111.462 28.4324 107.722 27.8848H107.371V27.8989ZM107.371 55.7977C104.095 55.7977 102.225 57.5107 101.761 60.9226V191.136C101.761 194.127 103.631 195.84 107.371 196.261H107.722C111.462 196.261 113.332 194.127 113.332 189.844V62.2143C113.332 57.9459 111.462 55.7977 107.722 55.7977H107.371Z" fill="#01245A"/>
<path d="M266.044 51.2486C289.776 42.1643 313.887 43.8491 338.393 56.2892C357.317 67.1286 370.293 81.6748 377.281 99.8996L378.392 102.806C386.476 123.867 385.449 145.981 375.313 169.148C364.543 190.645 348.741 205.387 327.933 213.348C307.561 221.141 286.317 220.888 264.202 212.576C240.596 202.214 224.569 186.011 216.119 163.995L215.613 162.676C206.249 138.273 208.429 113.393 222.179 88.0212C232.976 70.5545 247.598 58.297 266.03 51.2345L266.044 51.2486ZM224.302 159.966C232.048 180.142 246.6 194.885 267.97 204.18C287.372 211.509 306.338 211.621 324.854 204.531C344.874 196.865 359.538 182.361 368.859 161.019C376.128 141.474 376.311 122.702 369.422 104.73C361.478 84.0336 346.561 69.1224 324.657 60.0381C305.635 53.1722 287.484 53.0458 270.191 59.673L268.082 60.4874C247.176 68.4906 232.315 84.0757 223.5 107.257C217.609 125.678 217.891 143.257 224.316 159.994L224.302 159.966ZM271.92 66.567C257.636 72.0288 245.995 81.5344 237.025 95.0696C225.314 116.215 223.233 136.616 230.769 156.273L231.275 157.593C232.161 159.881 234.101 160.752 237.138 160.204C238.811 159.558 239.851 158.056 240.259 155.683C236.069 144.76 234.79 133.527 236.435 121.986C241.946 98.664 254.543 83.2333 274.212 75.7075L274.746 75.5109C277.614 74.0085 278.57 72.0288 277.629 69.5576L277.319 68.7714C276.602 66.918 274.817 66.1879 271.934 66.5951L271.92 66.567Z" fill="#01245A"/>
<path d="M179.721 10.4182C203.847 1.1794 228.38 2.89237 253.293 15.5571C272.541 26.579 285.728 41.3639 292.842 59.9116L293.981 62.8742C302.192 84.2863 301.151 106.779 290.86 130.34C279.908 152.201 263.852 167.182 242.679 175.284C221.955 183.217 200.346 182.95 177.879 174.498C153.88 163.953 137.571 147.483 128.981 125.089L128.461 123.741C118.943 98.9307 121.164 73.6153 135.139 47.8226C146.119 30.0611 160.98 17.593 179.735 10.4182H179.721ZM137.276 120.989C145.149 141.502 159.954 156.498 181.689 165.947C201.414 173.403 220.704 173.515 239.543 166.312C259.901 158.519 274.818 143.777 284.294 122.056C291.689 102.174 291.872 83.0928 284.856 64.8118C276.772 43.7648 261.602 28.6009 239.332 19.3481C219.987 12.3698 201.527 12.2435 183.939 18.969L181.788 19.7974C160.53 27.9269 145.416 43.7929 136.46 67.3532C130.471 86.0835 130.752 103.957 137.29 120.975L137.276 120.989ZM185.71 26.0033C171.173 31.5635 159.349 41.2234 150.225 54.9974C138.316 76.5077 136.193 97.2599 143.856 117.226L144.376 118.574C145.276 120.904 147.258 121.789 150.337 121.227C152.038 120.581 153.093 119.037 153.514 116.622C149.254 105.516 147.961 94.0867 149.62 82.3486C155.23 58.6199 168.038 42.9364 188.044 35.2842L188.578 35.0736C191.489 33.5432 192.459 31.5354 191.503 29.0221L191.193 28.2218C190.476 26.3403 188.649 25.5962 185.71 26.0033Z" fill="#01245A"/>
<path fill-rule="evenodd" clip-rule="evenodd" d="M152.853 228.147C142.21 229.537 124.735 228.175 115.849 228.905C114.949 235.813 131.342 239.422 136.994 233.427L145.303 241.725C126.126 257.815 97.2064 242.244 102.254 216.844C107.779 189.044 158.322 191.613 152.853 228.161V228.147ZM115.104 218.347H140.017C138.246 206.918 116.707 206.44 115.104 218.347Z" fill="#01245A"/>
<path fill-rule="evenodd" clip-rule="evenodd" d="M28.1465 246.513C52.0473 230.913 74.1767 213.545 98.3727 198.255V247.271H86.2958V221.632C70.0292 230.787 52.0895 244.785 35.6963 256.327C31.8722 254.361 30.1148 250.346 28.1465 246.527V246.513Z" fill="#01245A"/>
<path fill-rule="evenodd" clip-rule="evenodd" d="M200.007 198.367H153.668V208.617H171.678V248.998H182.012V208.617H200.007V198.367Z" fill="#01245A"/>
<path fill-rule="evenodd" clip-rule="evenodd" d="M242.424 245.361L298.802 245.333L298.773 255.681H267.702C275.098 266.099 300.925 281.628 287.146 301.622C280.524 311.226 263.738 314.568 254.093 305.511C239.331 291.625 245.91 270.255 263.161 267.981C261.587 265.229 242.424 245.361 242.424 245.361ZM268.335 300.33C284.784 300.864 283.407 273.091 265.101 278.329C253.249 281.712 256.188 299.937 268.335 300.33Z" fill="#01245A"/>
<path fill-rule="evenodd" clip-rule="evenodd" d="M162.721 245.979H164.015V320.395C164.015 320.395 155.607 328.257 152.346 330.097V267.967C120.487 288.354 90.6535 310.763 59.6808 332.034C56.1238 330.406 55.2802 326.067 52.5527 323.624C88.5446 297.017 126.153 272.024 162.707 245.965L162.721 245.979Z" fill="#01245A"/>
<path fill-rule="evenodd" clip-rule="evenodd" d="M198.502 290.095C198.178 290.235 181.054 306.115 172.464 312.644C172.52 312.181 172.436 269.286 172.436 269.286H182.797V289.996C190.305 284.071 198.881 274.481 209.369 269.286C229.235 259.444 251.097 282.457 237.882 301.636C228.518 315.228 198.192 313.093 198.502 290.095ZM208.076 289.351C208.498 304.192 231.597 302.914 231.4 288.705C231.274 279.48 223.513 276.026 215.851 278.357C209.285 280.35 207.935 284.661 208.076 289.351Z" fill="#01245A"/>
<path fill-rule="evenodd" clip-rule="evenodd" d="M338.504 293.661C338.04 293.745 307.208 293.872 307.208 293.872C306.435 299.811 320.508 302.9 325.345 297.761L332.473 304.88C316.023 318.682 291.195 305.329 295.539 283.524C300.291 259.669 343.2 262.308 338.49 293.661H338.504ZM306.562 284.815H327.946C326.427 275.015 307.939 274.594 306.562 284.815Z" fill="#01245A"/>
<path fill-rule="evenodd" clip-rule="evenodd" d="M355.811 308.109L355.783 334H344.803C344.803 334 344.522 304.037 344.803 284.17C345.126 261.115 385.139 261.522 388.218 283.524C391.128 304.318 373.245 315.733 355.811 308.123V308.109ZM366.82 300.344C382.383 300.064 381.174 273.218 362.939 278.343C350.764 281.769 354.082 300.583 366.82 300.344Z" fill="#01245A"/>
<path fill-rule="evenodd" clip-rule="evenodd" d="M557.998 268.879C557.998 268.879 515.3 299.46 492.861 313.655V268.191H504.067V291.976C519.152 283.482 550.997 259.795 550.997 259.795L557.998 268.893V268.879Z" fill="#01245A"/>
<path fill-rule="evenodd" clip-rule="evenodd" d="M404.598 268.177V298.926L422.102 298.954V268.177H433.307V298.926L446.607 298.954L440.309 310.847H393.407L393.379 268.205L404.584 268.177H404.598Z" fill="#01245A"/>
<path fill-rule="evenodd" clip-rule="evenodd" d="M461.342 276.56C461.089 273.794 461.314 268.163 461.314 268.163H450.137C450.137 268.163 450.165 283.468 450.137 284.17C449.082 305.666 455.072 310.482 462.045 312.237C495 320.521 494.93 265.706 461.342 276.56ZM468.611 302.759C463.802 302.759 459.908 298.87 459.908 294.068C459.908 292.875 460.147 291.723 460.597 290.684C460.751 290.221 460.962 289.828 461.229 289.491C462.762 287.02 465.489 285.377 468.611 285.377C473.419 285.377 477.313 289.266 477.313 294.068C477.313 298.87 473.419 302.759 468.611 302.759Z" fill="#01245A"/>
</g>
<defs>
<clipPath id="clip0_36_7975">
<rect width="558" height="334" fill="white"/>
</clipPath>
</defs>
</svg>
